<svg xmlns="http://www.w3.org/2000/svg" version="1.1" viewBox="0 0 503 230" width="503" height="230"><g stroke-width="2" fill="none" stroke-linecap="butt"><path stroke="#d4e7a3" vector-effect="non-scaling-stroke" d="M 103.88 0.00 L 103.36 0.20 A 0.45 0.45 0.0 0 0 103.23 0.97 Q 104.97 2.46 106.34 4.42 Q 113.37 14.45 117.16 28.83 Q 119.68 38.36 119.99 40.51 C 122.05 54.39 123.85 67.74 128.05 79.70 C 131.27 88.85 137.59 99.31 145.73 106.02 Q 151.25 110.57 153.03 111.69 Q 168.03 121.13 184.60 125.84 Q 194.01 128.51 203.12 126.83 A 0.98 0.98 0.0 0 1 203.96 127.07 Q 210.58 133.34 219.83 138.48 C 224.28 140.96 227.28 141.17 231.59 138.38 Q 233.95 136.85 234.97 134.81 C 237.17 130.42 232.91 129.24 229.72 129.04 C 225.25 128.75 221.05 128.31 217.45 125.65 Q 214.61 123.54 211.74 121.09 A 0.95 0.95 0.0 0 1 211.52 119.94 C 219.12 105.33 217.70 82.89 213.59 67.45 C 209.69 52.81 198.62 39.69 186.54 30.72 C 166.15 15.60 140.96 5.62 116.11 0.00" data-c-stroke="d4e7a3"/><path stroke="#818181" vector-effect="non-scaling-stroke" d="M 472.98 230.00 Q 483.05 228.38 485.68 218.65 A 0.81 0.81 0.0 0 0 485.07 217.65 L 481.56 216.90 A 0.76 0.76 0.0 0 0 480.65 217.52 C 479.35 225.42 470.88 227.78 464.52 224.13 C 456.77 219.68 457.20 202.33 465.07 198.18 C 471.02 195.04 477.96 196.83 480.31 203.69 A 0.81 0.81 0.0 0 0 481.27 204.21 L 484.58 203.37 A 0.73 0.73 0.0 0 0 485.10 202.47 C 481.52 189.81 462.75 189.52 456.89 199.92 Q 451.21 209.98 456.14 221.18 Q 459.63 229.10 468.79 230.00" data-c-stroke="818181"/><path stroke="#808080" vector-effect="non-scaling-stroke" d="M235.7 230Q245.58 229.07 247.41 220.94 248.44 216.37 245.51 212.22C242.6 208.09 233.53 206.56 229.55 205.35 226.28 204.36 224.76 200.78 228.89 199.39 232.35 198.23 238.01 198.24 238.75 203.05A.95.95 0 0 0 239.69 203.86L245.8 203.86A.75.74 87.2 0 0 246.54 203.04C245.58 193.32 235.48 191.02 227.37 193.19Q222.09 194.6 220.38 198.38C217.19 205.43 221.63 211.11 228.5 213Q231.81 213.92 236.6 215.13C241.29 216.31 240.93 221.67 236.98 223.13Q234.84 223.91 231.86 223.67 226.71 223.26 225.4 217.87A.71.71 0 0 0 224.71 217.32L218.96 217.32A.8.8 0 0 0 218.17 218.21Q219.35 228.57 230.29 230M119.49 230C131.21 228.39 135.79 218.29 134.25 207.53 132.95 198.48 126.76 192.81 117.73 192.52 109.78 192.26 102.98 195.84 100.34 203.5Q98.07 210.09 100.09 217.55 103.03 228.43 114.32 230" data-c-stroke="808080"/><path stroke="#818181" vector-effect="non-scaling-stroke" d="M 110.46 62.61 Q 108.84 64.92 107.75 68.29 Q 98.15 98.03 108.44 125.32 C 116.38 146.40 132.63 163.29 153.05 172.40 C 182.53 185.54 218.05 180.23 242.27 158.82 C 266.67 137.26 276.68 104.18 267.61 72.90 Q 259.46 44.79 235.35 27.80 Q 212.33 11.57 183.96 12.41 A 0.55 0.54 60.3 0 0 183.69 13.42 Q 194.56 20.34 202.57 27.70 A 5.68 5.66 -15.6 0 0 204.83 28.97 Q 231.33 36.56 245.82 58.89 C 254.54 72.35 258.41 90.11 255.92 106.02 C 252.44 128.16 239.20 146.38 219.72 157.21 C 202.60 166.73 180.28 167.54 162.26 160.74 Q 145.83 154.55 134.16 141.04 Q 115.89 119.88 117.64 90.06 A 9.26 9.25 -54.1 0 0 117.01 86.12 Q 112.55 74.76 110.94 62.72 A 0.27 0.26 -31.8 0 0 110.46 62.61" data-c-stroke="818181"/><path stroke="#818181" vector-effect="non-scaling-stroke" d="M357.22 157.53 367.62 157.53A1.09 1.09 0 0 0 368.57 156.97Q375.07 145.44 382.06 132.09 397.98 101.65 414.78 68.58C417.01 64.17 419.43 60.33 422.47 54.92A.49.49 0 0 1 423.34 54.95L476.42 168.91A.51.5-12.6 0 1 475.96 169.63L280.1 169.63A.48.48 0 0 1 279.68 168.92L359.11 25.36A.61.61 0 0 0 358.58 24.46Q344.3 24.39 303.5 24.06C287.55 23.93 275.19 23.88 264.9 24.87A1.49 1.48-13.7 0 0 263.66 26.9L263.67 26.94A2.89 2.88-11.4 0 0 266.41 28.75Q280.71 28.45 289.64 28.56C304.61 28.75 321.26 27.86 336.5 28.69A.57.56-78.8 0 1 337 29.45Q336.47 30.9 335.68 32.45 331.48 40.69 326.05 50.55 307.44 84.33 271.3 149.81 266.43 158.64 259.15 172.91A.49.48-76.4 0 0 259.58 173.62L496.28 173.62A.34.33 77.1 0 0 496.58 173.14L425.75 23.56A.55.54 46.6 0 0 424.78 23.53Q420.79 30.82 417.13 37.88 385.72 98.53 356.88 156.97A.39.38-76.9 0 0 357.22 157.53M5.48 25.38 5.48 173.19A.4.39-90 0 0 5.87 173.59L21.95 173.59A.45.45 0 0 0 22.4 173.14L22.4 28.9A.38.38 0 0 1 22.77 28.52C35.03 28.18 44.27 27.53 54.63 29.64 66.34 32.02 73.25 39.36 76.54 51.11 80.73 66.09 78.18 83.13 67.8 95.26 62.05 101.98 53.51 102.73 45.3 102.76A.47.47 0 0 0 44.84 103.33Q46.07 108.86 47.2 111.8C59.7 144.17 86.33 172.57 123.25 173.34Q126.65 173.41 129.16 172.68A.4.39 41.4 0 0 129.11 171.91C112.18 169.08 95.18 161.41 83.05 149.69 76.71 143.56 71.7 139.14 67.33 133.46Q57.64 120.85 52.47 110.57 51.58 108.8 51.08 107.2A.68.68 0 0 1 51.78 106.32C70.51 107.76 88.62 95.34 93.49 77.36Q97.23 63.51 92.78 51.35C86.95 35.43 71.12 25.63 54.48 24.71Q31.06 23.41 6.15 24.67A.71.7 88.7 0 0 5.48 25.38" data-c-stroke="818181"/><path stroke="#808080" vector-effect="non-scaling-stroke" d="M26.54 203.6Q26.87 203.6 27.03 204.22 30.37 217.28 33.44 228.74A.9.89 82.3 0 0 34.3 229.4L40.98 229.4A.87.87 0 0 0 41.83 228.73L50.38 193.4A.2.19 6.9 0 0 50.19 193.16L43.07 193.16A.34.34 0 0 0 42.74 193.42L37.67 216.97A.32.31-46.5 0 1 37.06 216.99L31.11 193.65A.6.59 84 0 0 30.56 193.2Q28.6 193.09 26.57 193.09 24.53 193.08 22.57 193.18A.6.59-83.8 0 0 22.02 193.63L15.96 216.94A.32.31 46.8 0 1 15.35 216.92L10.39 193.34A.34.34 0 0 0 10.07 193.08L2.95 193.05A.2.19-6.7 0 0 2.75 193.29L11.14 228.66A.87.87 0 0 0 11.99 229.33L18.67 229.36A.9.89-82.1 0 0 19.53 228.71Q22.65 217.26 26.05 204.22 26.21 203.6 26.54 203.6M73.62 213.65Q79.71 213.65 80.09 213.68A.7.7 0 0 1 80.73 214.38L80.73 228.87A.49.49 0 0 0 81.22 229.36L87.64 229.36A.54.54 0 0 0 88.18 228.82L88.18 193.65A.54.54 0 0 0 87.64 193.11L81.21 193.11A.48.48 0 0 0 80.73 193.59L80.73 206.75A.69.68-2.2 0 1 80.1 207.43Q79.63 207.47 73.62 207.46 67.61 207.46 67.15 207.43A.69.68 2.3 0 1 66.52 206.75L66.52 193.59A.48.48 0 0 0 66.04 193.11L59.61 193.11A.54.54 0 0 0 59.07 193.65L59.06 228.82A.54.54 0 0 0 59.6 229.36L66.02 229.36A.49.49 0 0 0 66.51 228.87L66.52 214.38A.7.7 0 0 1 67.16 213.68Q67.54 213.65 73.62 213.65M181.16 228.89A.49.49 0 0 0 181.65 229.38L208.3 229.38A.49.49 0 0 0 208.79 228.89L208.79 223.79A.49.49 0 0 0 208.3 223.3L188.96 223.3A.49.49 0 0 1 188.47 222.81L188.47 214.05A.49.49 0 0 1 188.96 213.56L206.12 213.56A.49.49 0 0 0 206.61 213.07L206.61 207.84A.49.49 0 0 0 206.12 207.35L188.96 207.35A.49.49 0 0 1 188.47 206.86L188.47 199.91A.49.49 0 0 1 188.96 199.42L207.55 199.42A.49.49 0 0 0 208.04 198.93L208.04 193.6A.49.49 0 0 0 207.55 193.11L181.65 193.11A.49.49 0 0 0 181.16 193.6L181.16 228.89M273.14 221.17Q279.09 221.14 279.92 221.15A.56.55 79.1 0 1 280.43 221.5L283.32 228.72A.95.94 79 0 0 284.2 229.32L290.66 229.32A.52.52 0 0 0 291.14 228.61L277.13 193.6A.77.77 0 0 0 276.42 193.12Q274.77 193.1 273.03 193.1 271.29 193.11 269.64 193.14A.77.77 0 0 0 268.93 193.63L255.2 228.75A.52.52 0 0 0 255.69 229.46L262.15 229.41A.95.94-79.4 0 0 263.02 228.8L265.86 221.56A.56.55-79.5 0 1 266.37 221.2Q267.19 221.19 273.14 221.17M363.89 228.78 363.89 223.88A.6.6 0 0 0 363.29 223.29L344.08 223.28A.49.49 0 0 1 343.59 222.8L343.58 213.98A.45.45 0 0 1 344.03 213.53L361.04 213.58A.71.71 0 0 0 361.75 212.87L361.75 208.03A.68.68 0 0 0 361.07 207.35L344.09 207.34A.48.48 0 0 1 343.61 206.86L343.62 199.91A.49.49 0 0 1 344.11 199.42L362.66 199.44A.52.51-89.9 0 0 363.17 198.92L363.2 193.63A.52.52 0 0 0 362.68 193.11L336.76 193.1A.46.46 0 0 0 336.3 193.56L336.29 228.96A.38.38 0 0 0 336.67 229.34L363.29 229.38A.6.6 0 0 0 363.89 228.78M388.88 228.86A.51.51 0 0 0 389.39 229.37L411.05 229.37A.51.51 0 0 0 411.56 228.86L411.56 225.54A.51.51 0 0 0 411.05 225.03L394.25 225.03A.51.51 0 0 1 393.74 224.52L393.74 193.62A.51.51 0 0 0 393.23 193.11L389.39 193.11A.51.51 0 0 0 388.88 193.62L388.88 228.86M444.68 225.54A.49.49 0 0 0 444.19 225.05L427.42 225.05A.56.55-90 0 1 426.87 224.49L426.89 193.65A.53.53 0 0 0 426.36 193.12L422.56 193.12A.55.55 0 0 0 422.01 193.67L422.01 228.72A.65.65 0 0 0 422.66 229.37L444.15 229.38A.52.51 0 0 0 444.67 228.87L444.68 225.54M170.52 223.3 153.27 223.31A.45.45 0 0 1 152.82 222.86L152.83 193.9A.44.43 0 0 0 152.39 193.47L145.73 193.49A.43.43 0 0 0 145.3 193.92L145.32 228.74A.64.64 0 0 0 145.97 229.38L170.54 229.37A.53.53 0 0 0 171.07 228.84L171.06 223.84A.54.54 0 0 0 170.52 223.3M325.75 229.37A.44.44 0 0 0 326.19 228.93L326.19 223.75A.44.44 0 0 0 325.75 223.31L308.42 223.31A.44.44 0 0 1 307.98 222.87L307.98 193.95A.44.44 0 0 0 307.54 193.51L300.92 193.51A.44.44 0 0 0 300.48 193.95L300.48 228.93A.44.44 0 0 0 300.92 229.37L325.75 229.37" data-c-stroke="808080"/><path stroke="#d4e7a3" vector-effect="non-scaling-stroke" d="M 200.43 113.46 Q 198.65 107.87 195.02 100.22 Q 183.66 76.26 177.13 63.52 Q 172.60 54.67 167.68 47.47 Q 152.52 25.30 127.37 14.79 A 0.25 0.25 0.0 0 0 127.12 15.22 Q 136.48 22.85 146.68 34.54 Q 150.75 39.21 153.52 43.98 Q 160.06 55.24 165.96 68.96 C 173.17 85.74 183.43 104.73 199.80 113.98 A 0.44 0.44 0.0 0 0 200.43 113.46" data-c-stroke="d4e7a3"/><path stroke="#808080" vector-effect="non-scaling-stroke" d="M126.6309 208.1742A9.04 9.04 0 0 0 117.6225 199.1027L116.1026 199.0974A9.04 9.04 0 0 0 107.0311 208.1058L107.0091 214.4058A9.04 9.04 0 0 0 116.0175 223.4773L117.5374 223.4826A9.04 9.04 0 0 0 126.6089 214.4742L126.6309 208.1742M268.36 214.48A.36.36 0 0 0 268.7 214.96L277.36 214.92A.36.36 0 0 0 277.7 214.43L273.31 202.6A.36.36 0 0 0 272.63 202.61L268.36 214.48" data-c-stroke="808080"/></g><path fill="#ffffff" d="M 103.88 0.00 L 103.36 0.20 A 0.45 0.45 0.0 0 0 103.23 0.97 Q 104.97 2.46 106.34 4.42 Q 113.37 14.45 117.16 28.83 Q 119.68 38.36 119.99 40.51 C 122.05 54.39 123.85 67.74 128.05 79.70 C 131.27 88.85 137.59 99.31 145.73 106.02 Q 151.25 110.57 153.03 111.69 Q 168.03 121.13 184.60 125.84 Q 194.01 128.51 203.12 126.83 A 0.98 0.98 0.0 0 1 203.96 127.07 Q 210.58 133.34 219.83 138.48 C 224.28 140.96 227.28 141.17 231.59 138.38 Q 233.95 136.85 234.97 134.81 C 237.17 130.42 232.91 129.24 229.72 129.04 C 225.25 128.75 221.05 128.31 217.45 125.65 Q 214.61 123.54 211.74 121.09 A 0.95 0.95 0.0 0 1 211.52 119.94 C 219.12 105.33 217.70 82.89 213.59 67.45 C 209.69 52.81 198.62 39.69 186.54 30.72 C 166.15 15.60 140.96 5.62 116.11 0.00 L 503.00 0.00 L 503.00 230.00 L 472.98 230.00 Q 483.05 228.38 485.68 218.65 A 0.81 0.81 0.0 0 0 485.07 217.65 L 481.56 216.90 A 0.76 0.76 0.0 0 0 480.65 217.52 C 479.35 225.42 470.88 227.78 464.52 224.13 C 456.77 219.68 457.20 202.33 465.07 198.18 C 471.02 195.04 477.96 196.83 480.31 203.69 A 0.81 0.81 0.0 0 0 481.27 204.21 L 484.58 203.37 A 0.73 0.73 0.0 0 0 485.10 202.47 C 481.52 189.81 462.75 189.52 456.89 199.92 Q 451.21 209.98 456.14 221.18 Q 459.63 229.10 468.79 230.00 L 235.70 230.00 Q 245.58 229.07 247.41 220.94 Q 248.44 216.37 245.51 212.22 C 242.60 208.09 233.53 206.56 229.55 205.35 C 226.28 204.36 224.76 200.78 228.89 199.39 C 232.35 198.23 238.01 198.24 238.75 203.05 A 0.95 0.95 0.0 0 0 239.69 203.86 L 245.80 203.86 A 0.75 0.74 87.2 0 0 246.54 203.04 C 245.58 193.32 235.48 191.02 227.37 193.19 Q 222.09 194.60 220.38 198.38 C 217.19 205.43 221.63 211.11 228.50 213.00 Q 231.81 213.92 236.60 215.13 C 241.29 216.31 240.93 221.67 236.98 223.13 Q 234.84 223.91 231.86 223.67 Q 226.71 223.26 225.40 217.87 A 0.71 0.71 0.0 0 0 224.71 217.32 L 218.96 217.32 A 0.80 0.80 0.0 0 0 218.17 218.21 Q 219.35 228.57 230.29 230.00 L 119.49 230.00 C 131.21 228.39 135.79 218.29 134.25 207.53 C 132.95 198.48 126.76 192.81 117.73 192.52 C 109.78 192.26 102.98 195.84 100.34 203.50 Q 98.07 210.09 100.09 217.55 Q 103.03 228.43 114.32 230.00 L 0.00 230.00 L 0.00 0.00 L 103.88 0.00 Z M 110.46 62.61 Q 108.84 64.92 107.75 68.29 Q 98.15 98.03 108.44 125.32 C 116.38 146.40 132.63 163.29 153.05 172.40 C 182.53 185.54 218.05 180.23 242.27 158.82 C 266.67 137.26 276.68 104.18 267.61 72.90 Q 259.46 44.79 235.35 27.80 Q 212.33 11.57 183.96 12.41 A 0.55 0.54 60.3 0 0 183.69 13.42 Q 194.56 20.34 202.57 27.70 A 5.68 5.66 -15.6 0 0 204.83 28.97 Q 231.33 36.56 245.82 58.89 C 254.54 72.35 258.41 90.11 255.92 106.02 C 252.44 128.16 239.20 146.38 219.72 157.21 C 202.60 166.73 180.28 167.54 162.26 160.74 Q 145.83 154.55 134.16 141.04 Q 115.89 119.88 117.64 90.06 A 9.26 9.25 -54.1 0 0 117.01 86.12 Q 112.55 74.76 110.94 62.72 A 0.27 0.26 -31.8 0 0 110.46 62.61 Z M 357.22 157.53 L 367.62 157.53 A 1.09 1.09 0.0 0 0 368.57 156.97 Q 375.07 145.44 382.06 132.09 Q 397.98 101.65 414.78 68.58 C 417.01 64.17 419.43 60.33 422.47 54.92 A 0.49 0.49 0.0 0 1 423.34 54.95 L 476.42 168.91 A 0.51 0.50 -12.6 0 1 475.96 169.63 L 280.10 169.63 A 0.48 0.48 0.0 0 1 279.68 168.92 L 359.11 25.36 A 0.61 0.61 0.0 0 0 358.58 24.46 Q 344.30 24.39 303.50 24.06 C 287.55 23.93 275.19 23.88 264.90 24.87 A 1.49 1.48 -13.7 0 0 263.66 26.90 L 263.67 26.94 A 2.89 2.88 -11.4 0 0 266.41 28.75 Q 280.71 28.45 289.64 28.56 C 304.61 28.75 321.26 27.86 336.50 28.69 A 0.57 0.56 -78.8 0 1 337.00 29.45 Q 336.47 30.90 335.68 32.45 Q 331.48 40.69 326.05 50.55 Q 307.44 84.33 271.30 149.81 Q 266.43 158.64 259.15 172.91 A 0.49 0.48 -76.4 0 0 259.58 173.62 L 496.28 173.62 A 0.34 0.33 77.1 0 0 496.58 173.14 L 425.75 23.56 A 0.55 0.54 46.6 0 0 424.78 23.53 Q 420.79 30.82 417.13 37.88 Q 385.72 98.53 356.88 156.97 A 0.39 0.38 -76.9 0 0 357.22 157.53 Z M 5.48 25.38 L 5.48 173.19 A 0.40 0.39 -90.0 0 0 5.87 173.59 L 21.95 173.59 A 0.45 0.45 0.0 0 0 22.40 173.14 L 22.40 28.90 A 0.38 0.38 0.0 0 1 22.77 28.52 C 35.03 28.18 44.27 27.53 54.63 29.64 C 66.34 32.02 73.25 39.36 76.54 51.11 C 80.73 66.09 78.18 83.13 67.80 95.26 C 62.05 101.98 53.51 102.73 45.30 102.76 A 0.47 0.47 0.0 0 0 44.84 103.33 Q 46.07 108.86 47.20 111.80 C 59.70 144.17 86.33 172.57 123.25 173.34 Q 126.65 173.41 129.16 172.68 A 0.40 0.39 41.4 0 0 129.11 171.91 C 112.18 169.08 95.18 161.41 83.05 149.69 C 76.71 143.56 71.70 139.14 67.33 133.46 Q 57.64 120.85 52.47 110.57 Q 51.58 108.80 51.08 107.20 A 0.68 0.68 0.0 0 1 51.78 106.32 C 70.51 107.76 88.62 95.34 93.49 77.36 Q 97.23 63.51 92.78 51.35 C 86.95 35.43 71.12 25.63 54.48 24.71 Q 31.06 23.41 6.15 24.67 A 0.71 0.70 88.7 0 0 5.48 25.38 Z M 26.54 203.60 Q 26.87 203.60 27.03 204.22 Q 30.37 217.28 33.44 228.74 A 0.90 0.89 82.3 0 0 34.30 229.40 L 40.98 229.40 A 0.87 0.87 0.0 0 0 41.83 228.73 L 50.38 193.40 A 0.20 0.19 6.9 0 0 50.19 193.16 L 43.07 193.16 A 0.34 0.34 0.0 0 0 42.74 193.42 L 37.67 216.97 A 0.32 0.31 -46.5 0 1 37.06 216.99 L 31.11 193.65 A 0.60 0.59 84.0 0 0 30.56 193.20 Q 28.60 193.09 26.57 193.09 Q 24.53 193.08 22.57 193.18 A 0.60 0.59 -83.8 0 0 22.02 193.63 L 15.96 216.94 A 0.32 0.31 46.8 0 1 15.35 216.92 L 10.39 193.34 A 0.34 0.34 0.0 0 0 10.07 193.08 L 2.95 193.05 A 0.20 0.19 -6.7 0 0 2.75 193.29 L 11.14 228.66 A 0.87 0.87 0.0 0 0 11.99 229.33 L 18.67 229.36 A 0.90 0.89 -82.1 0 0 19.53 228.71 Q 22.65 217.26 26.05 204.22 Q 26.21 203.60 26.54 203.60 Z M 73.62 213.65 Q 79.71 213.65 80.09 213.68 A 0.70 0.70 0.0 0 1 80.73 214.38 L 80.73 228.87 A 0.49 0.49 0.0 0 0 81.22 229.36 L 87.64 229.36 A 0.54 0.54 0.0 0 0 88.18 228.82 L 88.18 193.65 A 0.54 0.54 0.0 0 0 87.64 193.11 L 81.21 193.11 A 0.48 0.48 0.0 0 0 80.73 193.59 L 80.73 206.75 A 0.69 0.68 -2.2 0 1 80.10 207.43 Q 79.63 207.47 73.62 207.46 Q 67.61 207.46 67.15 207.43 A 0.69 0.68 2.3 0 1 66.52 206.75 L 66.52 193.59 A 0.48 0.48 0.0 0 0 66.04 193.11 L 59.61 193.11 A 0.54 0.54 0.0 0 0 59.07 193.65 L 59.06 228.82 A 0.54 0.54 0.0 0 0 59.60 229.36 L 66.02 229.36 A 0.49 0.49 0.0 0 0 66.51 228.87 L 66.52 214.38 A 0.70 0.70 0.0 0 1 67.16 213.68 Q 67.54 213.65 73.62 213.65 Z M 181.16 228.89 A 0.49 0.49 0.0 0 0 181.65 229.38 L 208.30 229.38 A 0.49 0.49 0.0 0 0 208.79 228.89 L 208.79 223.79 A 0.49 0.49 0.0 0 0 208.30 223.30 L 188.96 223.30 A 0.49 0.49 0.0 0 1 188.47 222.81 L 188.47 214.05 A 0.49 0.49 0.0 0 1 188.96 213.56 L 206.12 213.56 A 0.49 0.49 0.0 0 0 206.61 213.07 L 206.61 207.84 A 0.49 0.49 0.0 0 0 206.12 207.35 L 188.96 207.35 A 0.49 0.49 0.0 0 1 188.47 206.86 L 188.47 199.91 A 0.49 0.49 0.0 0 1 188.96 199.42 L 207.55 199.42 A 0.49 0.49 0.0 0 0 208.04 198.93 L 208.04 193.60 A 0.49 0.49 0.0 0 0 207.55 193.11 L 181.65 193.11 A 0.49 0.49 0.0 0 0 181.16 193.60 L 181.16 228.89 Z M 273.14 221.17 Q 279.09 221.14 279.92 221.15 A 0.56 0.55 79.1 0 1 280.43 221.50 L 283.32 228.72 A 0.95 0.94 79.0 0 0 284.20 229.32 L 290.66 229.32 A 0.52 0.52 0.0 0 0 291.14 228.61 L 277.13 193.60 A 0.77 0.77 0.0 0 0 276.42 193.12 Q 274.77 193.10 273.03 193.10 Q 271.29 193.11 269.64 193.14 A 0.77 0.77 0.0 0 0 268.93 193.63 L 255.20 228.75 A 0.52 0.52 0.0 0 0 255.69 229.46 L 262.15 229.41 A 0.95 0.94 -79.4 0 0 263.02 228.80 L 265.86 221.56 A 0.56 0.55 -79.5 0 1 266.37 221.20 Q 267.19 221.19 273.14 221.17 Z M 363.89 228.78 L 363.89 223.88 A 0.60 0.60 0.0 0 0 363.29 223.29 L 344.08 223.28 A 0.49 0.49 0.0 0 1 343.59 222.80 L 343.58 213.98 A 0.45 0.45 0.0 0 1 344.03 213.53 L 361.04 213.58 A 0.71 0.71 0.0 0 0 361.75 212.87 L 361.75 208.03 A 0.68 0.68 0.0 0 0 361.07 207.35 L 344.09 207.34 A 0.48 0.48 0.0 0 1 343.61 206.86 L 343.62 199.91 A 0.49 0.49 0.0 0 1 344.11 199.42 L 362.66 199.44 A 0.52 0.51 -89.9 0 0 363.17 198.92 L 363.20 193.63 A 0.52 0.52 0.0 0 0 362.68 193.11 L 336.76 193.10 A 0.46 0.46 0.0 0 0 336.30 193.56 L 336.29 228.96 A 0.38 0.38 0.0 0 0 336.67 229.34 L 363.29 229.38 A 0.60 0.60 0.0 0 0 363.89 228.78 Z M 388.88 228.86 A 0.51 0.51 0.0 0 0 389.39 229.37 L 411.05 229.37 A 0.51 0.51 0.0 0 0 411.56 228.86 L 411.56 225.54 A 0.51 0.51 0.0 0 0 411.05 225.03 L 394.25 225.03 A 0.51 0.51 0.0 0 1 393.74 224.52 L 393.74 193.62 A 0.51 0.51 0.0 0 0 393.23 193.11 L 389.39 193.11 A 0.51 0.51 0.0 0 0 388.88 193.62 L 388.88 228.86 Z M 444.68 225.54 A 0.49 0.49 0.0 0 0 444.19 225.05 L 427.42 225.05 A 0.56 0.55 -90.0 0 1 426.87 224.49 L 426.89 193.65 A 0.53 0.53 0.0 0 0 426.36 193.12 L 422.56 193.12 A 0.55 0.55 0.0 0 0 422.01 193.67 L 422.01 228.72 A 0.65 0.65 0.0 0 0 422.66 229.37 L 444.15 229.38 A 0.52 0.51 0.0 0 0 444.67 228.87 L 444.68 225.54 Z M 170.52 223.30 L 153.27 223.31 A 0.45 0.45 0.0 0 1 152.82 222.86 L 152.83 193.90 A 0.44 0.43 -0.0 0 0 152.39 193.47 L 145.73 193.49 A 0.43 0.43 0.0 0 0 145.30 193.92 L 145.32 228.74 A 0.64 0.64 0.0 0 0 145.97 229.38 L 170.54 229.37 A 0.53 0.53 0.0 0 0 171.07 228.84 L 171.06 223.84 A 0.54 0.54 0.0 0 0 170.52 223.30 Z M 325.75 229.37 A 0.44 0.44 0.0 0 0 326.19 228.93 L 326.19 223.75 A 0.44 0.44 0.0 0 0 325.75 223.31 L 308.42 223.31 A 0.44 0.44 0.0 0 1 307.98 222.87 L 307.98 193.95 A 0.44 0.44 0.0 0 0 307.54 193.51 L 300.92 193.51 A 0.44 0.44 0.0 0 0 300.48 193.95 L 300.48 228.93 A 0.44 0.44 0.0 0 0 300.92 229.37 L 325.75 229.37 Z" data-c-fill="ffffff" fill-opacity="0"/><path fill="#a8cf46" d="M 116.11 0.00 C 140.96 5.62 166.15 15.60 186.54 30.72 C 198.62 39.69 209.69 52.81 213.59 67.45 C 217.70 82.89 219.12 105.33 211.52 119.94 A 0.95 0.95 0.0 0 0 211.74 121.09 Q 214.61 123.54 217.45 125.65 C 221.05 128.31 225.25 128.75 229.72 129.04 C 232.91 129.24 237.17 130.42 234.97 134.81 Q 233.95 136.85 231.59 138.38 C 227.28 141.17 224.28 140.96 219.83 138.48 Q 210.58 133.34 203.96 127.07 A 0.98 0.98 0.0 0 0 203.12 126.83 Q 194.01 128.51 184.60 125.84 Q 168.03 121.13 153.03 111.69 Q 151.25 110.57 145.73 106.02 C 137.59 99.31 131.27 88.85 128.05 79.70 C 123.85 67.74 122.05 54.39 119.99 40.51 Q 119.68 38.36 117.16 28.83 Q 113.37 14.45 106.34 4.42 Q 104.97 2.46 103.23 0.97 A 0.45 0.45 0.0 0 1 103.36 0.20 L 103.88 0.00 L 116.11 0.00 Z M 200.43 113.46 Q 198.65 107.87 195.02 100.22 Q 183.66 76.26 177.13 63.52 Q 172.60 54.67 167.68 47.47 Q 152.52 25.30 127.37 14.79 A 0.25 0.25 0.0 0 0 127.12 15.22 Q 136.48 22.85 146.68 34.54 Q 150.75 39.21 153.52 43.98 Q 160.06 55.24 165.96 68.96 C 173.17 85.74 183.43 104.73 199.80 113.98 A 0.44 0.44 0.0 0 0 200.43 113.46 Z" data-c-fill="a8cf46"/><path fill="#020202" d="M 110.46 62.61 A 0.27 0.26 -31.8 0 1 110.94 62.72 Q 112.55 74.76 117.01 86.12 A 9.26 9.25 -54.1 0 1 117.64 90.06 Q 115.89 119.88 134.16 141.04 Q 145.83 154.55 162.26 160.74 C 180.28 167.54 202.60 166.73 219.72 157.21 C 239.20 146.38 252.44 128.16 255.92 106.02 C 258.41 90.11 254.54 72.35 245.82 58.89 Q 231.33 36.56 204.83 28.97 A 5.68 5.66 -15.6 0 1 202.57 27.70 Q 194.56 20.34 183.69 13.42 A 0.55 0.54 60.3 0 1 183.96 12.41 Q 212.33 11.57 235.35 27.80 Q 259.46 44.79 267.61 72.90 C 276.68 104.18 266.67 137.26 242.27 158.82 C 218.05 180.23 182.53 185.54 153.05 172.40 C 132.63 163.29 116.38 146.40 108.44 125.32 Q 98.15 98.03 107.75 68.29 Q 108.84 64.92 110.46 62.61 Z" data-c-fill="020202"/><path fill="#ffffff" d="M 200.43 113.46 A 0.44 0.44 0.0 0 1 199.80 113.98 C 183.43 104.73 173.17 85.74 165.96 68.96 Q 160.06 55.24 153.52 43.98 Q 150.75 39.21 146.68 34.54 Q 136.48 22.85 127.12 15.22 A 0.25 0.25 0.0 0 1 127.37 14.79 Q 152.52 25.30 167.68 47.47 Q 172.60 54.67 177.13 63.52 Q 183.66 76.26 195.02 100.22 Q 198.65 107.87 200.43 113.46 Z" data-c-fill="ffffff" fill-opacity="0"/><path fill="#020202" d="M357.22 157.53A.39.38-76.9 0 1 356.88 156.97Q385.72 98.53 417.13 37.88 420.79 30.82 424.78 23.53A.55.54 46.6 0 1 425.75 23.56L496.58 173.14A.34.33 77.1 0 1 496.28 173.62L259.58 173.62A.49.48-76.4 0 1 259.15 172.91Q266.43 158.64 271.3 149.81 307.44 84.33 326.05 50.55 331.48 40.69 335.68 32.45 336.47 30.9 337 29.45A.57.56-78.8 0 0 336.5 28.69C321.26 27.86 304.61 28.75 289.64 28.56Q280.71 28.45 266.41 28.75A2.89 2.88-11.4 0 1 263.67 26.94L263.66 26.9A1.49 1.48-13.7 0 1 264.9 24.87C275.19 23.88 287.55 23.93 303.5 24.06Q344.3 24.39 358.58 24.46A.61.61 0 0 1 359.11 25.36L279.68 168.92A.48.48 0 0 0 280.1 169.63L475.96 169.63A.51.5-12.6 0 0 476.42 168.91L423.34 54.95A.49.49 0 0 0 422.47 54.92C419.43 60.33 417.01 64.17 414.78 68.58Q397.98 101.65 382.06 132.09 375.07 145.44 368.57 156.97A1.09 1.09 0 0 1 367.62 157.53L357.22 157.53ZM6.15 24.67Q31.06 23.41 54.48 24.71C71.12 25.63 86.95 35.43 92.78 51.35Q97.23 63.51 93.49 77.36C88.62 95.34 70.51 107.76 51.78 106.32A.68.68 0 0 0 51.08 107.2Q51.58 108.8 52.47 110.57 57.64 120.85 67.33 133.46C71.7 139.14 76.71 143.56 83.05 149.69 95.18 161.41 112.18 169.08 129.11 171.91A.4.39 41.4 0 1 129.16 172.68Q126.65 173.41 123.25 173.34C86.33 172.57 59.7 144.17 47.2 111.8Q46.07 108.86 44.84 103.33A.47.47 0 0 1 45.3 102.76C53.51 102.73 62.05 101.98 67.8 95.26 78.18 83.13 80.73 66.09 76.54 51.11 73.25 39.36 66.34 32.02 54.63 29.64 44.27 27.53 35.03 28.18 22.77 28.52A.38.38 0 0 0 22.4 28.9L22.4 173.14A.45.45 0 0 1 21.95 173.59L5.87 173.59A.4.39-90 0 1 5.48 173.19L5.48 25.38A.71.7 88.7 0 1 6.15 24.67Z" data-c-fill="020202"/><path fill="#000000" d="M119.49 230 114.32 230Q103.03 228.43 100.09 217.55 98.07 210.09 100.34 203.5C102.98 195.84 109.78 192.26 117.73 192.52 126.76 192.81 132.95 198.48 134.25 207.53 135.79 218.29 131.21 228.39 119.49 230ZM126.6309 208.1742A9.04 9.04 0 0 0 117.6225 199.1027L116.1026 199.0974A9.04 9.04 0 0 0 107.0311 208.1058L107.0091 214.4058A9.04 9.04 0 0 0 116.0175 223.4773L117.5374 223.4826A9.04 9.04 0 0 0 126.6089 214.4742L126.6309 208.1742ZM235.7 230 230.29 230Q219.35 228.57 218.17 218.21A.8.8 0 0 1 218.96 217.32L224.71 217.32A.71.71 0 0 1 225.4 217.87Q226.71 223.26 231.86 223.67 234.84 223.91 236.98 223.13C240.93 221.67 241.29 216.31 236.6 215.13Q231.81 213.92 228.5 213C221.63 211.11 217.19 205.43 220.38 198.38Q222.09 194.6 227.37 193.19C235.48 191.02 245.58 193.32 246.54 203.04A.75.74 87.2 0 1 245.8 203.86L239.69 203.86A.95.95 0 0 1 238.75 203.05C238.01 198.24 232.35 198.23 228.89 199.39 224.76 200.78 226.28 204.36 229.55 205.35 233.53 206.56 242.6 208.09 245.51 212.22Q248.44 216.37 247.41 220.94 245.58 229.07 235.7 230Z" data-c-fill="000000"/><path fill="#020202" d="M 472.98 230.00 L 468.79 230.00 Q 459.63 229.10 456.14 221.18 Q 451.21 209.98 456.89 199.92 C 462.75 189.52 481.52 189.81 485.10 202.47 A 0.73 0.73 0.0 0 1 484.58 203.37 L 481.27 204.21 A 0.81 0.81 0.0 0 1 480.31 203.69 C 477.96 196.83 471.02 195.04 465.07 198.18 C 457.20 202.33 456.77 219.68 464.52 224.13 C 470.88 227.78 479.35 225.42 480.65 217.52 A 0.76 0.76 0.0 0 1 481.56 216.90 L 485.07 217.65 A 0.81 0.81 0.0 0 1 485.68 218.65 Q 483.05 228.38 472.98 230.00 Z" data-c-fill="020202"/><path fill="#000000" d="M26.57 193.09Q28.6 193.09 30.56 193.2A.6.59 84 0 1 31.11 193.65L37.06 216.99A.32.31-46.5 0 0 37.67 216.97L42.74 193.42A.34.34 0 0 1 43.07 193.16L50.19 193.16A.2.19 6.9 0 1 50.38 193.4L41.83 228.73A.87.87 0 0 1 40.98 229.4L34.3 229.4A.9.89 82.3 0 1 33.44 228.74Q30.37 217.28 27.03 204.22 26.87 203.6 26.54 203.6 26.21 203.6 26.05 204.22 22.65 217.26 19.53 228.71A.9.89-82.1 0 1 18.67 229.36L11.99 229.33A.87.87 0 0 1 11.14 228.66L2.75 193.29A.2.19-6.7 0 1 2.95 193.05L10.07 193.08A.34.34 0 0 1 10.39 193.34L15.35 216.92A.32.31 46.8 0 0 15.96 216.94L22.02 193.63A.6.59-83.8 0 1 22.57 193.18Q24.53 193.08 26.57 193.09ZM73.62 207.46Q79.63 207.47 80.1 207.43A.69.68-2.2 0 0 80.73 206.75L80.73 193.59A.48.48 0 0 1 81.21 193.11L87.64 193.11A.54.54 0 0 1 88.18 193.65L88.18 228.82A.54.54 0 0 1 87.64 229.36L81.22 229.36A.49.49 0 0 1 80.73 228.87L80.73 214.38A.7.7 0 0 0 80.09 213.68Q79.71 213.65 73.62 213.65 67.54 213.65 67.16 213.68A.7.7 0 0 0 66.52 214.38L66.51 228.87A.49.49 0 0 1 66.02 229.36L59.6 229.36A.54.54 0 0 1 59.06 228.82L59.07 193.65A.54.54 0 0 1 59.61 193.11L66.04 193.11A.48.48 0 0 1 66.52 193.59L66.52 206.75A.69.68 2.3 0 0 67.15 207.43Q67.61 207.46 73.62 207.46ZM181.16 228.89 181.16 193.6A.49.49 0 0 1 181.65 193.11L207.55 193.11A.49.49 0 0 1 208.04 193.6L208.04 198.93A.49.49 0 0 1 207.55 199.42L188.96 199.42A.49.49 0 0 0 188.47 199.91L188.47 206.86A.49.49 0 0 0 188.96 207.35L206.12 207.35A.49.49 0 0 1 206.61 207.84L206.61 213.07A.49.49 0 0 1 206.12 213.56L188.96 213.56A.49.49 0 0 0 188.47 214.05L188.47 222.81A.49.49 0 0 0 188.96 223.3L208.3 223.3A.49.49 0 0 1 208.79 223.79L208.79 228.89A.49.49 0 0 1 208.3 229.38L181.65 229.38A.49.49 0 0 1 181.16 228.89ZM273.03 193.1Q274.77 193.1 276.42 193.12A.77.77 0 0 1 277.13 193.6L291.14 228.61A.52.52 0 0 1 290.66 229.32L284.2 229.32A.95.94 79 0 1 283.32 228.72L280.43 221.5A.56.55 79.1 0 0 279.92 221.15Q279.09 221.14 273.14 221.17 267.19 221.19 266.37 221.2A.56.55-79.5 0 0 265.86 221.56L263.02 228.8A.95.94-79.4 0 1 262.15 229.41L255.69 229.46A.52.52 0 0 1 255.2 228.75L268.93 193.63A.77.77 0 0 1 269.64 193.14Q271.29 193.11 273.03 193.1ZM268.36 214.48A.36.36 0 0 0 268.7 214.96L277.36 214.92A.36.36 0 0 0 277.7 214.43L273.31 202.6A.36.36 0 0 0 272.63 202.61L268.36 214.48ZM363.89 228.78A.6.6 0 0 1 363.29 229.38L336.67 229.34A.38.38 0 0 1 336.29 228.96L336.3 193.56A.46.46 0 0 1 336.76 193.1L362.68 193.11A.52.52 0 0 1 363.2 193.63L363.17 198.92A.52.51-89.9 0 1 362.66 199.44L344.11 199.42A.49.49 0 0 0 343.62 199.91L343.61 206.86A.48.48 0 0 0 344.09 207.34L361.07 207.35A.68.68 0 0 1 361.75 208.03L361.75 212.87A.71.71 0 0 1 361.04 213.58L344.03 213.53A.45.45 0 0 0 343.58 213.98L343.59 222.8A.49.49 0 0 0 344.08 223.28L363.29 223.29A.6.6 0 0 1 363.89 223.88L363.89 228.78ZM388.88 228.86 388.88 193.62A.51.51 0 0 1 389.39 193.11L393.23 193.11A.51.51 0 0 1 393.74 193.62L393.74 224.52A.51.51 0 0 0 394.25 225.03L411.05 225.03A.51.51 0 0 1 411.56 225.54L411.56 228.86A.51.51 0 0 1 411.05 229.37L389.39 229.37A.51.51 0 0 1 388.88 228.86ZM444.68 225.54 444.67 228.87A.52.51 0 0 1 444.15 229.38L422.66 229.37A.65.65 0 0 1 422.01 228.72L422.01 193.67A.55.55 0 0 1 422.56 193.12L426.36 193.12A.53.53 0 0 1 426.89 193.65L426.87 224.49A.56.55-90 0 0 427.42 225.05L444.19 225.05A.49.49 0 0 1 444.68 225.54ZM170.52 223.3A.54.54 0 0 1 171.06 223.84L171.07 228.84A.53.53 0 0 1 170.54 229.37L145.97 229.38A.64.64 0 0 1 145.32 228.74L145.3 193.92A.43.43 0 0 1 145.73 193.49L152.39 193.47A.44.43 0 0 1 152.83 193.9L152.82 222.86A.45.45 0 0 0 153.27 223.31L170.52 223.3ZM325.75 229.37 300.92 229.37A.44.44 0 0 1 300.48 228.93L300.48 193.95A.44.44 0 0 1 300.92 193.51L307.54 193.51A.44.44 0 0 1 307.98 193.95L307.98 222.87A.44.44 0 0 0 308.42 223.31L325.75 223.31A.44.44 0 0 1 326.19 223.75L326.19 228.93A.44.44 0 0 1 325.75 229.37Z" data-c-fill="000000"/><rect fill="#ffffff" x="-9.8" y="-12.19" transform="rotate(.2 -60471.655 33572.076)" width="19.6" height="24.38" rx="9.04" data-c-fill="ffffff" fill-opacity="0"/><path fill="#ffffff" d="M 268.36 214.48 L 272.63 202.61 A 0.36 0.36 0.0 0 1 273.31 202.60 L 277.70 214.43 A 0.36 0.36 0.0 0 1 277.36 214.92 L 268.70 214.96 A 0.36 0.36 0.0 0 1 268.36 214.48 Z" data-c-fill="ffffff" fill-opacity="0"/></svg>