<svg width="503" height="230" viewBox="0 0 503 230" fill="none" xmlns="http://www.w3.org/2000/svg">
<g clip-path="url(#clip0_1_22)">
<path d="M103.88 0L103.36 0.2C103.286 0.2274 103.22 0.273948 103.169 0.334937C103.119 0.395926 103.085 0.469193 103.072 0.54733C103.059 0.625466 103.066 0.705701 103.094 0.779919C103.122 0.854138 103.169 0.919708 103.23 0.97C104.39 1.96333 105.427 3.11333 106.34 4.42C111.027 11.1067 114.633 19.2433 117.16 28.83C118.84 35.1833 119.783 39.0767 119.99 40.51C122.05 54.39 123.85 67.74 128.05 79.7C131.27 88.85 137.59 99.31 145.73 106.02C149.41 109.053 151.843 110.943 153.03 111.69C163.03 117.983 173.553 122.7 184.6 125.84C190.873 127.62 197.047 127.95 203.12 126.83C203.269 126.802 203.422 126.81 203.568 126.851C203.714 126.893 203.848 126.968 203.96 127.07C208.373 131.25 213.663 135.053 219.83 138.48C224.28 140.96 227.28 141.17 231.59 138.38C233.163 137.36 234.29 136.17 234.97 134.81C237.17 130.42 232.91 129.24 229.72 129.04C225.25 128.75 221.05 128.31 217.45 125.65C215.557 124.243 213.653 122.723 211.74 121.09C211.58 120.95 211.472 120.761 211.432 120.553C211.392 120.344 211.423 120.129 211.52 119.94C219.12 105.33 217.7 82.89 213.59 67.45C209.69 52.81 198.62 39.69 186.54 30.72C166.15 15.6 140.96 5.62 116.11 0" stroke="#D4E7A3" stroke-width="2"/>
<path d="M472.98 230C479.693 228.92 483.927 225.137 485.68 218.65C485.708 218.544 485.715 218.434 485.699 218.325C485.683 218.217 485.646 218.113 485.589 218.02C485.532 217.926 485.456 217.845 485.367 217.782C485.278 217.718 485.177 217.673 485.07 217.65L481.56 216.9C481.459 216.878 481.355 216.877 481.254 216.897C481.153 216.917 481.057 216.957 480.972 217.015C480.887 217.073 480.815 217.148 480.759 217.234C480.704 217.321 480.667 217.418 480.65 217.52C479.35 225.42 470.88 227.78 464.52 224.13C456.77 219.68 457.2 202.33 465.07 198.18C471.02 195.04 477.96 196.83 480.31 203.69C480.376 203.881 480.512 204.04 480.689 204.136C480.867 204.232 481.074 204.259 481.27 204.21L484.58 203.37C484.674 203.346 484.761 203.303 484.838 203.244C484.915 203.186 484.98 203.112 485.028 203.029C485.077 202.945 485.108 202.852 485.12 202.757C485.133 202.661 485.126 202.563 485.1 202.47C481.52 189.81 462.75 189.52 456.89 199.92C453.103 206.627 452.853 213.713 456.14 221.18C458.467 226.46 462.683 229.4 468.79 230" stroke="white" stroke-width="2"/>
<path d="M235.7 230C242.287 229.38 246.19 226.36 247.41 220.94C248.097 217.893 247.463 214.987 245.51 212.22C242.6 208.09 233.53 206.56 229.55 205.35C226.28 204.36 224.76 200.78 228.89 199.39C232.35 198.23 238.01 198.24 238.75 203.05C238.784 203.275 238.897 203.481 239.069 203.63C239.242 203.778 239.462 203.86 239.69 203.86H245.8C245.903 203.861 246.006 203.839 246.1 203.797C246.195 203.755 246.28 203.694 246.35 203.617C246.419 203.539 246.472 203.448 246.505 203.349C246.538 203.25 246.55 203.144 246.54 203.04C245.58 193.32 235.48 191.02 227.37 193.19C223.85 194.13 221.52 195.86 220.38 198.38C217.19 205.43 221.63 211.11 228.5 213C230.707 213.613 233.407 214.323 236.6 215.13C241.29 216.31 240.93 221.67 236.98 223.13C235.553 223.65 233.847 223.83 231.86 223.67C228.427 223.397 226.273 221.463 225.4 217.87C225.364 217.714 225.276 217.575 225.151 217.475C225.026 217.375 224.87 217.32 224.71 217.32H218.96C218.848 217.321 218.737 217.345 218.635 217.391C218.532 217.438 218.441 217.505 218.367 217.589C218.292 217.673 218.236 217.772 218.202 217.879C218.168 217.986 218.157 218.098 218.17 218.21C218.957 225.117 222.997 229.047 230.29 230M119.49 230C131.21 228.39 135.79 218.29 134.25 207.53C132.95 198.48 126.76 192.81 117.73 192.52C109.78 192.26 102.98 195.84 100.34 203.5C98.8267 207.893 98.7433 212.577 100.09 217.55C102.05 224.803 106.793 228.953 114.32 230" stroke="white" stroke-width="2"/>
<path d="M110.46 62.61C109.38 64.15 108.477 66.0433 107.75 68.29C101.35 88.1167 101.58 107.127 108.44 125.32C116.38 146.4 132.63 163.29 153.05 172.4C182.53 185.54 218.05 180.23 242.27 158.82C266.67 137.26 276.68 104.18 267.61 72.9C262.177 54.16 251.423 39.1267 235.35 27.8C220.003 16.98 202.873 11.85 183.96 12.41C183.843 12.411 183.73 12.4502 183.638 12.5218C183.546 12.5934 183.48 12.6935 183.449 12.8071C183.419 12.9208 183.426 13.0419 183.469 13.1524C183.513 13.2628 183.59 13.3567 183.69 13.42C190.937 18.0333 197.23 22.7933 202.57 27.7C203.215 28.2918 203.988 28.7265 204.83 28.97C222.497 34.03 236.16 44.0033 245.82 58.89C254.54 72.35 258.41 90.11 255.92 106.02C252.44 128.16 239.2 146.38 219.72 157.21C202.6 166.73 180.28 167.54 162.26 160.74C151.307 156.613 141.94 150.047 134.16 141.04C121.98 126.933 116.473 109.94 117.64 90.06C117.719 88.7162 117.504 87.3716 117.01 86.12C114.037 78.5467 112.013 70.7467 110.94 62.72C110.934 62.668 110.912 62.6195 110.877 62.5809C110.842 62.5422 110.795 62.5153 110.744 62.5034C110.692 62.4916 110.637 62.4954 110.587 62.5144C110.536 62.5334 110.492 62.5667 110.46 62.61Z" stroke="white" stroke-width="2"/>
<path d="M357.22 157.53H367.62C367.814 157.53 368.004 157.477 368.171 157.379C368.338 157.281 368.476 157.139 368.57 156.97C372.903 149.283 377.4 140.99 382.06 132.09C392.673 111.797 403.58 90.6267 414.78 68.58C417.01 64.17 419.43 60.33 422.47 54.92C422.514 54.8416 422.579 54.7769 422.657 54.7328C422.735 54.6888 422.824 54.6671 422.914 54.6702C423.004 54.6733 423.091 54.7011 423.166 54.7504C423.241 54.7997 423.301 54.8688 423.34 54.95L476.42 168.91C476.457 168.986 476.474 169.07 476.469 169.155C476.464 169.239 476.437 169.321 476.391 169.393C476.345 169.465 476.282 169.524 476.206 169.566C476.131 169.607 476.046 169.629 475.96 169.63H280.1C280.017 169.63 279.935 169.608 279.863 169.567C279.791 169.525 279.731 169.466 279.688 169.394C279.646 169.323 279.623 169.241 279.621 169.158C279.62 169.075 279.64 168.993 279.68 168.92L359.11 25.36C359.16 25.2676 359.185 25.1638 359.183 25.0588C359.181 24.9537 359.152 24.851 359.099 24.7604C359.046 24.6699 358.97 24.5947 358.879 24.542C358.788 24.4894 358.685 24.4611 358.58 24.46C349.06 24.4133 330.7 24.28 303.5 24.06C287.55 23.93 275.19 23.88 264.9 24.87C264.669 24.8926 264.447 24.9684 264.251 25.0913C264.055 25.2142 263.89 25.3808 263.769 25.5778C263.649 25.7749 263.576 25.997 263.557 26.2265C263.538 26.4561 263.574 26.6867 263.66 26.9L263.67 26.94C263.888 27.4839 264.266 27.9485 264.756 28.2719C265.245 28.5953 265.822 28.7621 266.41 28.75C275.943 28.55 283.687 28.4867 289.64 28.56C304.61 28.75 321.26 27.86 336.5 28.69C336.588 28.6937 336.673 28.7182 336.75 28.7617C336.826 28.8052 336.891 28.8663 336.94 28.9403C336.988 29.0142 337.019 29.0989 337.03 29.1874C337.04 29.276 337.03 29.3659 337 29.45C336.647 30.4167 336.207 31.4167 335.68 32.45C332.88 37.9433 329.67 43.9767 326.05 50.55C313.643 73.07 295.393 106.157 271.3 149.81C268.053 155.697 264.003 163.397 259.15 172.91C259.112 172.985 259.094 173.069 259.097 173.153C259.1 173.237 259.124 173.319 259.167 173.39C259.211 173.462 259.271 173.52 259.344 173.561C259.416 173.601 259.497 173.621 259.58 173.62H496.28C496.336 173.621 496.391 173.607 496.44 173.58C496.488 173.554 496.53 173.514 496.56 173.467C496.59 173.419 496.607 173.364 496.611 173.307C496.614 173.249 496.604 173.192 496.58 173.14L425.75 23.56C425.705 23.4692 425.637 23.392 425.552 23.337C425.467 23.2819 425.369 23.2512 425.269 23.2481C425.168 23.245 425.07 23.2696 424.983 23.3194C424.897 23.3691 424.827 23.442 424.78 23.53C422.12 28.39 419.57 33.1733 417.13 37.88C396.19 78.3133 376.107 118.01 356.88 156.97C356.851 157.03 356.837 157.096 356.84 157.162C356.843 157.228 356.862 157.293 356.896 157.349C356.93 157.405 356.978 157.451 357.035 157.483C357.091 157.514 357.155 157.531 357.22 157.53ZM5.48 25.38V173.19C5.48 173.296 5.52109 173.398 5.59423 173.473C5.66737 173.548 5.76657 173.59 5.87 173.59H21.95C22.0091 173.59 22.0676 173.578 22.1222 173.556C22.1768 173.533 22.2264 173.5 22.2682 173.458C22.31 173.416 22.3431 173.367 22.3657 173.312C22.3884 173.258 22.4 173.199 22.4 173.14V28.9C22.4 28.8009 22.4386 28.7058 22.5077 28.6348C22.5769 28.5638 22.671 28.5226 22.77 28.52C35.03 28.18 44.27 27.53 54.63 29.64C66.34 32.02 73.25 39.36 76.54 51.11C80.73 66.09 78.18 83.13 67.8 95.26C62.05 101.98 53.51 102.73 45.3 102.76C45.2297 102.76 45.1603 102.776 45.0969 102.806C45.0335 102.836 44.9776 102.88 44.9335 102.935C44.8894 102.99 44.858 103.053 44.8419 103.122C44.8257 103.19 44.825 103.261 44.84 103.33C45.66 107.017 46.4467 109.84 47.2 111.8C59.7 144.17 86.33 172.57 123.25 173.34C125.517 173.387 127.487 173.167 129.16 172.68C129.247 172.657 129.322 172.606 129.374 172.533C129.426 172.461 129.451 172.373 129.445 172.283C129.44 172.193 129.403 172.107 129.342 172.039C129.281 171.971 129.199 171.926 129.11 171.91C112.18 169.08 95.18 161.41 83.05 149.69C76.71 143.56 71.7 139.14 67.33 133.46C60.87 125.053 55.9167 117.423 52.47 110.57C51.8767 109.39 51.4133 108.267 51.08 107.2C51.0471 107.094 51.0406 106.982 51.061 106.873C51.0814 106.764 51.1282 106.662 51.1972 106.575C51.2662 106.488 51.3554 106.419 51.457 106.375C51.5585 106.331 51.6694 106.312 51.78 106.32C70.51 107.76 88.62 95.34 93.49 77.36C95.9833 68.1267 95.7467 59.4567 92.78 51.35C86.95 35.43 71.12 25.63 54.48 24.71C38.8667 23.8433 22.7567 23.83 6.15 24.67C5.96952 24.6777 5.79902 24.7559 5.67416 24.8883C5.54929 25.0206 5.47972 25.1968 5.48 25.38Z" stroke="white" stroke-width="2"/>
<path d="M26.54 203.6C26.76 203.6 26.9233 203.807 27.03 204.22C29.2567 212.927 31.3933 221.1 33.44 228.74C33.4925 228.93 33.605 229.097 33.7603 229.216C33.9157 229.335 34.1052 229.4 34.3 229.4H40.98C41.1765 229.401 41.3675 229.335 41.5219 229.213C41.6762 229.092 41.7848 228.921 41.83 228.73L50.38 193.4C50.3876 193.372 50.3884 193.343 50.3825 193.315C50.3765 193.287 50.3639 193.26 50.3456 193.237C50.3274 193.214 50.3038 193.195 50.2769 193.182C50.2499 193.168 50.2202 193.161 50.19 193.16H43.07C42.9938 193.16 42.9199 193.186 42.86 193.233C42.8002 193.28 42.7579 193.346 42.74 193.42L37.67 216.97C37.6528 217.038 37.6135 217.1 37.5583 217.145C37.5031 217.189 37.4352 217.215 37.3652 217.217C37.2953 217.219 37.2273 217.198 37.1721 217.157C37.1168 217.116 37.0774 217.057 37.06 216.99L31.11 193.65C31.0779 193.525 31.0071 193.414 30.908 193.333C30.8089 193.252 30.6869 193.205 30.56 193.2C29.2533 193.127 27.9233 193.09 26.57 193.09C25.21 193.083 23.8767 193.113 22.57 193.18C22.4431 193.185 22.3211 193.232 22.222 193.313C22.1229 193.394 22.0521 193.505 22.02 193.63L15.96 216.94C15.9427 217.007 15.9033 217.066 15.848 217.107C15.7927 217.149 15.7247 217.17 15.6548 217.167C15.5848 217.165 15.5169 217.14 15.4617 217.095C15.4065 217.05 15.3672 216.988 15.35 216.92L10.39 193.34C10.3725 193.268 10.3317 193.203 10.2739 193.156C10.2161 193.109 10.1445 193.082 10.07 193.08L2.95 193.05C2.91895 193.049 2.88808 193.056 2.85986 193.068C2.83164 193.081 2.80684 193.1 2.78742 193.123C2.76801 193.146 2.75452 193.174 2.74802 193.203C2.74153 193.232 2.7422 193.261 2.75 193.29L11.14 228.66C11.1852 228.851 11.2938 229.022 11.4481 229.143C11.6025 229.265 11.7935 229.331 11.99 229.33L18.67 229.36C18.8635 229.361 19.0521 229.298 19.2072 229.18C19.3624 229.063 19.4757 228.898 19.53 228.71C21.61 221.077 23.7833 212.913 26.05 204.22C26.1567 203.807 26.32 203.6 26.54 203.6ZM73.62 213.65C77.68 213.65 79.8367 213.66 80.09 213.68C80.2651 213.695 80.4281 213.775 80.5466 213.905C80.6652 214.035 80.7306 214.204 80.73 214.38V228.87C80.73 229 80.7816 229.125 80.8735 229.216C80.9654 229.308 81.09 229.36 81.22 229.36H87.64C87.7832 229.36 87.9206 229.303 88.0218 229.202C88.1231 229.101 88.18 228.963 88.18 228.82V193.65C88.18 193.507 88.1231 193.369 88.0218 193.268C87.9206 193.167 87.7832 193.11 87.64 193.11H81.21C81.0827 193.11 80.9606 193.161 80.8706 193.251C80.7806 193.341 80.73 193.463 80.73 193.59V206.75C80.7305 206.92 80.666 207.085 80.5493 207.211C80.4326 207.337 80.2723 207.415 80.1 207.43C79.7867 207.457 77.6267 207.467 73.62 207.46C69.6133 207.46 67.4567 207.45 67.15 207.43C66.9777 207.415 66.8174 207.337 66.7007 207.211C66.584 207.085 66.5195 206.92 66.52 206.75V193.59C66.52 193.463 66.4694 193.341 66.3794 193.251C66.2894 193.161 66.1673 193.11 66.04 193.11H59.61C59.4668 193.11 59.3294 193.167 59.2282 193.268C59.1269 193.369 59.07 193.507 59.07 193.65L59.06 228.82C59.06 228.963 59.1169 229.101 59.2182 229.202C59.3194 229.303 59.4568 229.36 59.6 229.36H66.02C66.15 229.36 66.2746 229.308 66.3665 229.216C66.4584 229.125 66.51 229 66.51 228.87L66.52 214.38C66.5194 214.204 66.5848 214.035 66.7034 213.905C66.8219 213.775 66.9849 213.695 67.16 213.68C67.4133 213.66 69.5667 213.65 73.62 213.65ZM181.16 228.89C181.16 229.02 181.212 229.145 181.304 229.236C181.395 229.328 181.52 229.38 181.65 229.38H208.3C208.43 229.38 208.555 229.328 208.646 229.236C208.738 229.145 208.79 229.02 208.79 228.89V223.79C208.79 223.66 208.738 223.535 208.646 223.444C208.555 223.352 208.43 223.3 208.3 223.3H188.96C188.83 223.3 188.705 223.248 188.614 223.156C188.522 223.065 188.47 222.94 188.47 222.81V214.05C188.47 213.92 188.522 213.795 188.614 213.704C188.705 213.612 188.83 213.56 188.96 213.56H206.12C206.184 213.56 206.248 213.547 206.308 213.523C206.367 213.498 206.421 213.462 206.466 213.416C206.512 213.371 206.548 213.317 206.573 213.258C206.597 213.198 206.61 213.134 206.61 213.07V207.84C206.61 207.71 206.558 207.585 206.466 207.494C206.375 207.402 206.25 207.35 206.12 207.35H188.96C188.83 207.35 188.705 207.298 188.614 207.206C188.522 207.115 188.47 206.99 188.47 206.86V199.91C188.47 199.78 188.522 199.655 188.614 199.564C188.705 199.472 188.83 199.42 188.96 199.42H207.55C207.68 199.42 207.805 199.368 207.896 199.276C207.988 199.185 208.04 199.06 208.04 198.93V193.6C208.04 193.47 207.988 193.345 207.896 193.254C207.805 193.162 207.68 193.11 207.55 193.11H181.65C181.52 193.11 181.395 193.162 181.304 193.254C181.212 193.345 181.16 193.47 181.16 193.6V228.89ZM273.14 221.17C277.107 221.15 279.367 221.143 279.92 221.15C280.029 221.151 280.136 221.184 280.227 221.246C280.318 221.309 280.388 221.397 280.43 221.5L283.32 228.72C283.39 228.898 283.512 229.05 283.669 229.157C283.826 229.264 284.011 229.321 284.2 229.32H290.66C290.744 229.319 290.827 229.298 290.902 229.258C290.976 229.218 291.04 229.161 291.087 229.091C291.134 229.021 291.164 228.941 291.173 228.857C291.182 228.773 291.171 228.689 291.14 228.61L277.13 193.6C277.073 193.459 276.974 193.338 276.848 193.252C276.722 193.167 276.573 193.121 276.42 193.12C275.32 193.107 274.19 193.1 273.03 193.1C271.87 193.107 270.74 193.12 269.64 193.14C269.486 193.141 269.336 193.189 269.21 193.276C269.083 193.364 268.986 193.487 268.93 193.63L255.2 228.75C255.169 228.829 255.158 228.915 255.167 229C255.177 229.084 255.208 229.165 255.256 229.235C255.304 229.306 255.369 229.363 255.445 229.402C255.521 229.441 255.605 229.461 255.69 229.46L262.15 229.41C262.339 229.408 262.522 229.349 262.677 229.24C262.833 229.131 262.952 228.978 263.02 228.8L265.86 221.56C265.9 221.455 265.97 221.365 266.061 221.301C266.152 221.236 266.26 221.201 266.37 221.2C266.917 221.193 269.173 221.183 273.14 221.17ZM363.89 228.78V223.88C363.887 223.723 363.823 223.573 363.711 223.462C363.599 223.352 363.447 223.29 363.29 223.29L344.08 223.28C343.952 223.28 343.829 223.23 343.737 223.14C343.645 223.05 343.593 222.928 343.59 222.8L343.58 213.98C343.58 213.861 343.627 213.746 343.712 213.662C343.796 213.577 343.911 213.53 344.03 213.53L361.04 213.58C361.228 213.58 361.409 213.505 361.542 213.372C361.675 213.239 361.75 213.058 361.75 212.87V208.03C361.75 207.941 361.732 207.852 361.698 207.77C361.664 207.687 361.614 207.612 361.551 207.549C361.488 207.486 361.413 207.436 361.33 207.402C361.248 207.368 361.159 207.35 361.07 207.35L344.09 207.34C343.963 207.34 343.841 207.289 343.751 207.199C343.661 207.109 343.61 206.987 343.61 206.86L343.62 199.91C343.62 199.78 343.672 199.655 343.764 199.564C343.855 199.472 343.98 199.42 344.11 199.42L362.66 199.44C362.795 199.44 362.925 199.385 363.021 199.288C363.116 199.19 363.17 199.058 363.17 198.92L363.2 193.63C363.2 193.492 363.145 193.36 363.048 193.262C362.95 193.165 362.818 193.11 362.68 193.11L336.76 193.1C336.638 193.1 336.521 193.148 336.435 193.235C336.348 193.321 336.3 193.438 336.3 193.56L336.29 228.96C336.29 229.061 336.33 229.157 336.401 229.229C336.473 229.3 336.569 229.34 336.67 229.34L363.29 229.38C363.449 229.38 363.602 229.317 363.714 229.204C363.827 229.092 363.89 228.939 363.89 228.78ZM388.88 228.86C388.88 228.995 388.934 229.125 389.029 229.221C389.125 229.316 389.255 229.37 389.39 229.37H411.05C411.185 229.37 411.315 229.316 411.411 229.221C411.506 229.125 411.56 228.995 411.56 228.86V225.54C411.56 225.405 411.506 225.275 411.411 225.179C411.315 225.084 411.185 225.03 411.05 225.03H394.25C394.115 225.03 393.985 224.976 393.889 224.881C393.794 224.785 393.74 224.655 393.74 224.52V193.62C393.74 193.485 393.686 193.355 393.591 193.259C393.495 193.164 393.365 193.11 393.23 193.11H389.39C389.255 193.11 389.125 193.164 389.029 193.259C388.934 193.355 388.88 193.485 388.88 193.62V228.86ZM444.68 225.54C444.68 225.41 444.628 225.285 444.536 225.194C444.445 225.102 444.32 225.05 444.19 225.05H427.42C427.274 225.05 427.134 224.991 427.031 224.886C426.928 224.781 426.87 224.639 426.87 224.49L426.89 193.65C426.89 193.509 426.834 193.375 426.735 193.275C426.635 193.176 426.501 193.12 426.36 193.12H422.56C422.414 193.12 422.274 193.178 422.171 193.281C422.068 193.384 422.01 193.524 422.01 193.67V228.72C422.01 228.892 422.078 229.058 422.2 229.18C422.322 229.302 422.488 229.37 422.66 229.37L444.15 229.38C444.288 229.38 444.42 229.326 444.518 229.231C444.615 229.135 444.67 229.005 444.67 228.87L444.68 225.54ZM170.52 223.3L153.27 223.31C153.151 223.31 153.036 223.263 152.952 223.178C152.867 223.094 152.82 222.979 152.82 222.86L152.83 193.9C152.83 193.844 152.819 193.788 152.797 193.735C152.774 193.683 152.742 193.636 152.701 193.596C152.66 193.556 152.612 193.524 152.558 193.503C152.505 193.481 152.448 193.47 152.39 193.47L145.73 193.49C145.616 193.49 145.507 193.535 145.426 193.616C145.345 193.697 145.3 193.806 145.3 193.92L145.32 228.74C145.32 228.825 145.337 228.909 145.37 228.987C145.402 229.066 145.45 229.137 145.511 229.196C145.571 229.256 145.643 229.303 145.722 229.334C145.801 229.366 145.885 229.381 145.97 229.38L170.54 229.37C170.681 229.37 170.815 229.314 170.915 229.215C171.014 229.115 171.07 228.981 171.07 228.84L171.06 223.84C171.06 223.697 171.003 223.559 170.902 223.458C170.801 223.357 170.663 223.3 170.52 223.3ZM325.75 229.37C325.867 229.37 325.979 229.324 326.061 229.241C326.144 229.159 326.19 229.047 326.19 228.93V223.75C326.19 223.633 326.144 223.521 326.061 223.439C325.979 223.356 325.867 223.31 325.75 223.31H308.42C308.303 223.31 308.191 223.264 308.109 223.181C308.026 223.099 307.98 222.987 307.98 222.87V193.95C307.98 193.833 307.934 193.721 307.851 193.639C307.769 193.556 307.657 193.51 307.54 193.51H300.92C300.803 193.51 300.691 193.556 300.609 193.639C300.526 193.721 300.48 193.833 300.48 193.95V228.93C300.48 229.047 300.526 229.159 300.609 229.241C300.691 229.324 300.803 229.37 300.92 229.37H325.75Z" stroke="white" stroke-width="2"/>
<path d="M200.43 113.46C199.243 109.733 197.44 105.32 195.02 100.22C187.447 84.2467 181.483 72.0133 177.13 63.52C174.11 57.62 170.96 52.27 167.68 47.47C157.573 32.69 144.137 21.7967 127.37 14.79C127.314 14.7645 127.25 14.7608 127.191 14.7797C127.132 14.7986 127.082 14.8387 127.051 14.8922C127.02 14.9457 127.01 15.0088 127.022 15.0694C127.035 15.1299 127.07 15.1836 127.12 15.22C133.36 20.3067 139.88 26.7467 146.68 34.54C149.393 37.6533 151.673 40.8 153.52 43.98C157.88 51.4867 162.027 59.8133 165.96 68.96C173.17 85.74 183.43 104.73 199.8 113.98C199.877 114.022 199.965 114.04 200.053 114.032C200.14 114.023 200.223 113.989 200.291 113.933C200.359 113.877 200.408 113.802 200.433 113.718C200.458 113.634 200.457 113.544 200.43 113.46Z" stroke="#D4E7A3" stroke-width="2"/>
<path d="M126.631 208.174C126.635 206.987 126.405 205.811 125.955 204.712C125.504 203.614 124.842 202.615 124.005 201.773C123.169 200.93 122.175 200.261 121.08 199.803C119.984 199.345 118.81 199.107 117.622 199.103L116.103 199.097C114.915 199.093 113.739 199.323 112.641 199.773C111.542 200.224 110.544 200.886 109.701 201.723C108.859 202.559 108.189 203.554 107.731 204.649C107.273 205.744 107.035 206.919 107.031 208.106L107.009 214.406C107.005 215.593 107.235 216.769 107.685 217.868C108.136 218.966 108.798 219.965 109.635 220.807C110.471 221.65 111.465 222.319 112.56 222.777C113.656 223.235 114.83 223.473 116.018 223.477L117.537 223.483C118.725 223.487 119.901 223.257 120.999 222.807C122.098 222.356 123.096 221.694 123.939 220.857C124.781 220.021 125.451 219.026 125.909 217.931C126.367 216.836 126.605 215.661 126.609 214.474L126.631 208.174ZM268.36 214.48C268.341 214.534 268.335 214.592 268.343 214.65C268.351 214.707 268.372 214.761 268.406 214.808C268.439 214.855 268.483 214.893 268.534 214.92C268.586 214.946 268.642 214.96 268.7 214.96L277.36 214.92C277.419 214.921 277.477 214.907 277.529 214.88C277.582 214.853 277.627 214.814 277.66 214.765C277.694 214.717 277.715 214.661 277.722 214.603C277.729 214.544 277.721 214.485 277.7 214.43L273.31 202.6C273.284 202.53 273.238 202.469 273.176 202.427C273.114 202.384 273.041 202.362 272.966 202.363C272.892 202.364 272.819 202.389 272.759 202.433C272.699 202.477 272.654 202.539 272.63 202.61L268.36 214.48Z" stroke="white" stroke-width="2"/>
<path d="M116.11 0C140.96 5.62 166.15 15.6 186.54 30.72C198.62 39.69 209.69 52.81 213.59 67.45C217.7 82.89 219.12 105.33 211.52 119.94C211.423 120.129 211.392 120.344 211.432 120.553C211.472 120.761 211.58 120.95 211.74 121.09C213.653 122.723 215.557 124.243 217.45 125.65C221.05 128.31 225.25 128.75 229.72 129.04C232.91 129.24 237.17 130.42 234.97 134.81C234.29 136.17 233.163 137.36 231.59 138.38C227.28 141.17 224.28 140.96 219.83 138.48C213.663 135.053 208.373 131.25 203.96 127.07C203.848 126.968 203.714 126.893 203.568 126.851C203.422 126.81 203.269 126.802 203.12 126.83C197.047 127.95 190.873 127.62 184.6 125.84C173.553 122.7 163.03 117.983 153.03 111.69C151.843 110.943 149.41 109.053 145.73 106.02C137.59 99.31 131.27 88.85 128.05 79.7C123.85 67.74 122.05 54.39 119.99 40.51C119.783 39.0767 118.84 35.1833 117.16 28.83C114.633 19.2433 111.027 11.1067 106.34 4.42C105.427 3.11333 104.39 1.96333 103.23 0.97C103.169 0.919708 103.122 0.854138 103.094 0.779919C103.066 0.705701 103.059 0.625466 103.072 0.54733C103.085 0.469193 103.119 0.395926 103.169 0.334937C103.22 0.273948 103.286 0.2274 103.36 0.2L103.88 0H116.11ZM200.43 113.46C199.243 109.733 197.44 105.32 195.02 100.22C187.447 84.2467 181.483 72.0133 177.13 63.52C174.11 57.62 170.96 52.27 167.68 47.47C157.573 32.69 144.137 21.7967 127.37 14.79C127.314 14.7645 127.25 14.7608 127.191 14.7797C127.132 14.7986 127.082 14.8387 127.051 14.8922C127.02 14.9457 127.01 15.0088 127.022 15.0694C127.035 15.1299 127.07 15.1836 127.12 15.22C133.36 20.3067 139.88 26.7467 146.68 34.54C149.393 37.6533 151.673 40.8 153.52 43.98C157.88 51.4867 162.027 59.8133 165.96 68.96C173.17 85.74 183.43 104.73 199.8 113.98C199.877 114.022 199.965 114.04 200.053 114.032C200.14 114.023 200.223 113.989 200.291 113.933C200.359 113.877 200.408 113.802 200.433 113.718C200.458 113.634 200.457 113.544 200.43 113.46Z" fill="#A8CF46"/>
<path d="M110.46 62.61C110.492 62.5667 110.536 62.5334 110.587 62.5144C110.637 62.4954 110.692 62.4916 110.744 62.5034C110.795 62.5153 110.842 62.5422 110.877 62.5809C110.912 62.6195 110.934 62.668 110.94 62.72C112.013 70.7467 114.037 78.5467 117.01 86.12C117.504 87.3716 117.719 88.7162 117.64 90.06C116.473 109.94 121.98 126.933 134.16 141.04C141.94 150.047 151.307 156.613 162.26 160.74C180.28 167.54 202.6 166.73 219.72 157.21C239.2 146.38 252.44 128.16 255.92 106.02C258.41 90.11 254.54 72.35 245.82 58.89C236.16 44.0033 222.497 34.03 204.83 28.97C203.988 28.7265 203.215 28.2918 202.57 27.7C197.23 22.7933 190.937 18.0333 183.69 13.42C183.59 13.3567 183.513 13.2628 183.469 13.1524C183.426 13.0419 183.419 12.9208 183.449 12.8071C183.48 12.6935 183.546 12.5934 183.638 12.5218C183.73 12.4502 183.843 12.411 183.96 12.41C202.873 11.85 220.003 16.98 235.35 27.8C251.423 39.1267 262.177 54.16 267.61 72.9C276.68 104.18 266.67 137.26 242.27 158.82C218.05 180.23 182.53 185.54 153.05 172.4C132.63 163.29 116.38 146.4 108.44 125.32C101.58 107.127 101.35 88.1167 107.75 68.29C108.477 66.0433 109.38 64.15 110.46 62.61Z" fill="#020202"/>
<path d="M357.22 157.53C357.155 157.531 357.091 157.514 357.035 157.483C356.978 157.451 356.93 157.405 356.896 157.349C356.862 157.293 356.843 157.228 356.84 157.162C356.837 157.096 356.851 157.03 356.88 156.97C376.107 118.01 396.19 78.3133 417.13 37.88C419.57 33.1733 422.12 28.39 424.78 23.53C424.827 23.442 424.897 23.3691 424.983 23.3194C425.07 23.2696 425.168 23.245 425.269 23.2481C425.369 23.2512 425.467 23.2819 425.552 23.337C425.637 23.392 425.705 23.4692 425.75 23.56L496.58 173.14C496.604 173.192 496.614 173.249 496.611 173.307C496.607 173.364 496.59 173.419 496.56 173.467C496.53 173.514 496.488 173.554 496.44 173.58C496.391 173.607 496.336 173.621 496.28 173.62H259.58C259.497 173.621 259.416 173.601 259.344 173.561C259.271 173.52 259.211 173.462 259.167 173.39C259.124 173.319 259.1 173.237 259.097 173.153C259.094 173.069 259.112 172.985 259.15 172.91C264.003 163.397 268.053 155.697 271.3 149.81C295.393 106.157 313.643 73.07 326.05 50.55C329.67 43.9767 332.88 37.9433 335.68 32.45C336.207 31.4167 336.647 30.4167 337 29.45C337.03 29.3659 337.04 29.276 337.03 29.1874C337.019 29.0989 336.988 29.0142 336.94 28.9403C336.891 28.8663 336.826 28.8052 336.75 28.7617C336.673 28.7182 336.588 28.6937 336.5 28.69C321.26 27.86 304.61 28.75 289.64 28.56C283.687 28.4867 275.943 28.55 266.41 28.75C265.822 28.7621 265.245 28.5953 264.756 28.2719C264.266 27.9485 263.888 27.4839 263.67 26.94L263.66 26.9C263.574 26.6867 263.538 26.4561 263.557 26.2265C263.576 25.997 263.649 25.7749 263.769 25.5778C263.89 25.3808 264.055 25.2142 264.251 25.0913C264.447 24.9684 264.669 24.8926 264.9 24.87C275.19 23.88 287.55 23.93 303.5 24.06C330.7 24.28 349.06 24.4133 358.58 24.46C358.685 24.4611 358.788 24.4894 358.879 24.542C358.97 24.5947 359.046 24.6699 359.099 24.7604C359.152 24.851 359.181 24.9537 359.183 25.0588C359.185 25.1638 359.16 25.2676 359.11 25.36L279.68 168.92C279.64 168.993 279.62 169.075 279.621 169.158C279.623 169.241 279.646 169.323 279.688 169.394C279.731 169.466 279.791 169.525 279.863 169.567C279.935 169.608 280.017 169.63 280.1 169.63H475.96C476.046 169.629 476.131 169.607 476.206 169.566C476.282 169.524 476.345 169.465 476.391 169.393C476.437 169.321 476.464 169.239 476.469 169.155C476.474 169.07 476.457 168.986 476.42 168.91L423.34 54.95C423.301 54.8688 423.241 54.7997 423.166 54.7504C423.091 54.7011 423.004 54.6733 422.914 54.6702C422.824 54.6671 422.735 54.6888 422.657 54.7328C422.579 54.7769 422.514 54.8416 422.47 54.92C419.43 60.33 417.01 64.17 414.78 68.58C403.58 90.6267 392.673 111.797 382.06 132.09C377.4 140.99 372.903 149.283 368.57 156.97C368.476 157.139 368.338 157.281 368.171 157.379C368.004 157.477 367.814 157.53 367.62 157.53H357.22ZM6.15 24.67C22.7567 23.83 38.8667 23.8433 54.48 24.71C71.12 25.63 86.95 35.43 92.78 51.35C95.7467 59.4567 95.9833 68.1267 93.49 77.36C88.62 95.34 70.51 107.76 51.78 106.32C51.6694 106.312 51.5585 106.331 51.457 106.375C51.3554 106.419 51.2662 106.488 51.1972 106.575C51.1282 106.662 51.0814 106.764 51.061 106.873C51.0406 106.982 51.0471 107.094 51.08 107.2C51.4133 108.267 51.8767 109.39 52.47 110.57C55.9167 117.423 60.87 125.053 67.33 133.46C71.7 139.14 76.71 143.56 83.05 149.69C95.18 161.41 112.18 169.08 129.11 171.91C129.199 171.926 129.281 171.971 129.342 172.039C129.403 172.107 129.44 172.193 129.445 172.283C129.451 172.373 129.426 172.461 129.374 172.533C129.322 172.606 129.247 172.657 129.16 172.68C127.487 173.167 125.517 173.387 123.25 173.34C86.33 172.57 59.7 144.17 47.2 111.8C46.4467 109.84 45.66 107.017 44.84 103.33C44.825 103.261 44.8257 103.19 44.8419 103.122C44.858 103.053 44.8894 102.99 44.9335 102.935C44.9776 102.88 45.0335 102.836 45.0969 102.806C45.1603 102.776 45.2297 102.76 45.3 102.76C53.51 102.73 62.05 101.98 67.8 95.26C78.18 83.13 80.73 66.09 76.54 51.11C73.25 39.36 66.34 32.02 54.63 29.64C44.27 27.53 35.03 28.18 22.77 28.52C22.671 28.5226 22.5769 28.5638 22.5077 28.6348C22.4386 28.7058 22.4 28.8009 22.4 28.9V173.14C22.4 173.199 22.3884 173.258 22.3657 173.312C22.3431 173.367 22.31 173.416 22.2682 173.458C22.2264 173.5 22.1768 173.533 22.1222 173.556C22.0676 173.578 22.0091 173.59 21.95 173.59H5.87C5.76657 173.59 5.66737 173.548 5.59423 173.473C5.52109 173.398 5.48 173.296 5.48 173.19V25.38C5.47972 25.1968 5.54929 25.0206 5.67416 24.8883C5.79902 24.7559 5.96952 24.6777 6.15 24.67Z" fill="#020202"/>
<path d="M119.49 230H114.32C106.793 228.953 102.05 224.803 100.09 217.55C98.7433 212.577 98.8267 207.893 100.34 203.5C102.98 195.84 109.78 192.26 117.73 192.52C126.76 192.81 132.95 198.48 134.25 207.53C135.79 218.29 131.21 228.39 119.49 230ZM126.631 208.174C126.635 206.987 126.405 205.811 125.955 204.712C125.504 203.614 124.842 202.615 124.005 201.773C123.169 200.93 122.175 200.261 121.08 199.803C119.984 199.345 118.81 199.107 117.622 199.103L116.103 199.097C114.915 199.093 113.739 199.323 112.641 199.773C111.542 200.224 110.544 200.886 109.701 201.723C108.859 202.559 108.189 203.554 107.731 204.649C107.273 205.744 107.035 206.919 107.031 208.106L107.009 214.406C107.005 215.593 107.235 216.769 107.685 217.868C108.136 218.966 108.798 219.965 109.635 220.807C110.471 221.65 111.465 222.319 112.56 222.777C113.656 223.235 114.83 223.473 116.018 223.477L117.537 223.483C118.725 223.487 119.901 223.257 120.999 222.807C122.098 222.356 123.096 221.694 123.939 220.857C124.781 220.021 125.451 219.026 125.909 217.931C126.367 216.836 126.605 215.661 126.609 214.474L126.631 208.174ZM235.7 230H230.29C222.997 229.047 218.957 225.117 218.17 218.21C218.157 218.098 218.168 217.986 218.202 217.879C218.236 217.772 218.292 217.673 218.367 217.589C218.441 217.505 218.532 217.438 218.635 217.391C218.737 217.345 218.848 217.321 218.96 217.32H224.71C224.87 217.32 225.026 217.375 225.151 217.475C225.276 217.575 225.364 217.714 225.4 217.87C226.273 221.463 228.427 223.397 231.86 223.67C233.847 223.83 235.553 223.65 236.98 223.13C240.93 221.67 241.29 216.31 236.6 215.13C233.407 214.323 230.707 213.613 228.5 213C221.63 211.11 217.19 205.43 220.38 198.38C221.52 195.86 223.85 194.13 227.37 193.19C235.48 191.02 245.58 193.32 246.54 203.04C246.55 203.144 246.538 203.25 246.505 203.349C246.472 203.448 246.419 203.539 246.35 203.617C246.28 203.694 246.195 203.755 246.1 203.797C246.006 203.839 245.903 203.861 245.8 203.86H239.69C239.462 203.86 239.242 203.778 239.069 203.63C238.897 203.481 238.784 203.275 238.75 203.05C238.01 198.24 232.35 198.23 228.89 199.39C224.76 200.78 226.28 204.36 229.55 205.35C233.53 206.56 242.6 208.09 245.51 212.22C247.463 214.987 248.097 217.893 247.41 220.94C246.19 226.36 242.287 229.38 235.7 230Z" fill="black"/>
<path d="M472.98 230H468.79C462.683 229.4 458.467 226.46 456.14 221.18C452.853 213.713 453.103 206.627 456.89 199.92C462.75 189.52 481.52 189.81 485.1 202.47C485.126 202.563 485.133 202.661 485.12 202.757C485.108 202.852 485.077 202.945 485.028 203.029C484.98 203.112 484.915 203.186 484.838 203.244C484.761 203.303 484.674 203.346 484.58 203.37L481.27 204.21C481.074 204.259 480.867 204.232 480.689 204.136C480.512 204.04 480.376 203.881 480.31 203.69C477.96 196.83 471.02 195.04 465.07 198.18C457.2 202.33 456.77 219.68 464.52 224.13C470.88 227.78 479.35 225.42 480.65 217.52C480.667 217.418 480.704 217.321 480.759 217.234C480.815 217.148 480.887 217.073 480.972 217.015C481.057 216.957 481.153 216.917 481.254 216.897C481.355 216.877 481.459 216.878 481.56 216.9L485.07 217.65C485.177 217.673 485.278 217.718 485.367 217.782C485.456 217.845 485.532 217.926 485.589 218.02C485.646 218.113 485.683 218.217 485.699 218.325C485.715 218.434 485.708 218.544 485.68 218.65C483.927 225.137 479.693 228.92 472.98 230Z" fill="#020202"/>
<path d="M26.57 193.09C27.9233 193.09 29.2533 193.127 30.56 193.2C30.6869 193.205 30.8089 193.252 30.908 193.333C31.0071 193.414 31.0779 193.525 31.11 193.65L37.06 216.99C37.0774 217.057 37.1168 217.116 37.1721 217.157C37.2273 217.198 37.2953 217.219 37.3652 217.217C37.4352 217.215 37.5031 217.189 37.5583 217.145C37.6135 217.1 37.6528 217.038 37.67 216.97L42.74 193.42C42.7579 193.346 42.8002 193.28 42.86 193.233C42.9199 193.186 42.9938 193.16 43.07 193.16H50.19C50.2202 193.161 50.2499 193.168 50.2769 193.182C50.3038 193.195 50.3274 193.214 50.3456 193.237C50.3639 193.26 50.3765 193.287 50.3825 193.315C50.3884 193.343 50.3876 193.372 50.38 193.4L41.83 228.73C41.7848 228.921 41.6762 229.092 41.5219 229.213C41.3675 229.335 41.1765 229.401 40.98 229.4H34.3C34.1052 229.4 33.9157 229.335 33.7603 229.216C33.605 229.097 33.4925 228.93 33.44 228.74C31.3933 221.1 29.2567 212.927 27.03 204.22C26.9233 203.807 26.76 203.6 26.54 203.6C26.32 203.6 26.1567 203.807 26.05 204.22C23.7833 212.913 21.61 221.077 19.53 228.71C19.4757 228.898 19.3624 229.063 19.2072 229.18C19.0521 229.298 18.8635 229.361 18.67 229.36L11.99 229.33C11.7935 229.331 11.6025 229.265 11.4481 229.143C11.2938 229.022 11.1852 228.851 11.14 228.66L2.75 193.29C2.7422 193.261 2.74153 193.232 2.74802 193.203C2.75452 193.174 2.76801 193.146 2.78742 193.123C2.80684 193.1 2.83164 193.081 2.85986 193.068C2.88808 193.056 2.91895 193.049 2.95 193.05L10.07 193.08C10.1445 193.082 10.2161 193.109 10.2739 193.156C10.3317 193.203 10.3725 193.268 10.39 193.34L15.35 216.92C15.3672 216.988 15.4065 217.05 15.4617 217.095C15.5169 217.14 15.5848 217.165 15.6548 217.167C15.7247 217.17 15.7927 217.149 15.848 217.107C15.9033 217.066 15.9427 217.007 15.96 216.94L22.02 193.63C22.0521 193.505 22.1229 193.394 22.222 193.313C22.3211 193.232 22.4431 193.185 22.57 193.18C23.8767 193.113 25.21 193.083 26.57 193.09ZM73.62 207.46C77.6267 207.467 79.7867 207.457 80.1 207.43C80.2723 207.415 80.4326 207.337 80.5493 207.211C80.666 207.085 80.7305 206.92 80.73 206.75V193.59C80.73 193.463 80.7806 193.341 80.8706 193.251C80.9606 193.161 81.0827 193.11 81.21 193.11H87.64C87.7832 193.11 87.9206 193.167 88.0218 193.268C88.1231 193.369 88.18 193.507 88.18 193.65V228.82C88.18 228.963 88.1231 229.101 88.0218 229.202C87.9206 229.303 87.7832 229.36 87.64 229.36H81.22C81.09 229.36 80.9654 229.308 80.8735 229.216C80.7816 229.125 80.73 229 80.73 228.87V214.38C80.7306 214.204 80.6652 214.035 80.5466 213.905C80.4281 213.775 80.2651 213.695 80.09 213.68C79.8367 213.66 77.68 213.65 73.62 213.65C69.5667 213.65 67.4133 213.66 67.16 213.68C66.9849 213.695 66.8219 213.775 66.7034 213.905C66.5848 214.035 66.5194 214.204 66.52 214.38L66.51 228.87C66.51 229 66.4584 229.125 66.3665 229.216C66.2746 229.308 66.15 229.36 66.02 229.36H59.6C59.4568 229.36 59.3194 229.303 59.2182 229.202C59.1169 229.101 59.06 228.963 59.06 228.82L59.07 193.65C59.07 193.507 59.1269 193.369 59.2282 193.268C59.3294 193.167 59.4668 193.11 59.61 193.11H66.04C66.1673 193.11 66.2894 193.161 66.3794 193.251C66.4694 193.341 66.52 193.463 66.52 193.59V206.75C66.5195 206.92 66.584 207.085 66.7007 207.211C66.8174 207.337 66.9777 207.415 67.15 207.43C67.4567 207.45 69.6133 207.46 73.62 207.46ZM181.16 228.89V193.6C181.16 193.47 181.212 193.345 181.304 193.254C181.395 193.162 181.52 193.11 181.65 193.11H207.55C207.68 193.11 207.805 193.162 207.896 193.254C207.988 193.345 208.04 193.47 208.04 193.6V198.93C208.04 199.06 207.988 199.185 207.896 199.276C207.805 199.368 207.68 199.42 207.55 199.42H188.96C188.83 199.42 188.705 199.472 188.614 199.564C188.522 199.655 188.47 199.78 188.47 199.91V206.86C188.47 206.99 188.522 207.115 188.614 207.206C188.705 207.298 188.83 207.35 188.96 207.35H206.12C206.25 207.35 206.375 207.402 206.466 207.494C206.558 207.585 206.61 207.71 206.61 207.84V213.07C206.61 213.134 206.597 213.198 206.573 213.258C206.548 213.317 206.512 213.371 206.466 213.416C206.421 213.462 206.367 213.498 206.308 213.523C206.248 213.547 206.184 213.56 206.12 213.56H188.96C188.83 213.56 188.705 213.612 188.614 213.704C188.522 213.795 188.47 213.92 188.47 214.05V222.81C188.47 222.94 188.522 223.065 188.614 223.156C188.705 223.248 188.83 223.3 188.96 223.3H208.3C208.43 223.3 208.555 223.352 208.646 223.444C208.738 223.535 208.79 223.66 208.79 223.79V228.89C208.79 229.02 208.738 229.145 208.646 229.236C208.555 229.328 208.43 229.38 208.3 229.38H181.65C181.52 229.38 181.395 229.328 181.304 229.236C181.212 229.145 181.16 229.02 181.16 228.89ZM273.03 193.1C274.19 193.1 275.32 193.107 276.42 193.12C276.573 193.121 276.722 193.167 276.848 193.252C276.974 193.338 277.073 193.459 277.13 193.6L291.14 228.61C291.171 228.689 291.182 228.773 291.173 228.857C291.164 228.941 291.134 229.021 291.087 229.091C291.04 229.161 290.976 229.218 290.902 229.258C290.827 229.298 290.744 229.319 290.66 229.32H284.2C284.011 229.321 283.826 229.264 283.669 229.157C283.512 229.05 283.39 228.898 283.32 228.72L280.43 221.5C280.388 221.397 280.318 221.309 280.227 221.246C280.136 221.184 280.029 221.151 279.92 221.15C279.367 221.143 277.107 221.15 273.14 221.17C269.173 221.183 266.917 221.193 266.37 221.2C266.26 221.201 266.152 221.236 266.061 221.301C265.97 221.365 265.9 221.455 265.86 221.56L263.02 228.8C262.952 228.978 262.833 229.131 262.677 229.24C262.522 229.349 262.339 229.408 262.15 229.41L255.69 229.46C255.605 229.461 255.521 229.441 255.445 229.402C255.369 229.363 255.304 229.306 255.256 229.235C255.208 229.165 255.177 229.084 255.167 229C255.158 228.915 255.169 228.829 255.2 228.75L268.93 193.63C268.986 193.487 269.083 193.364 269.21 193.276C269.336 193.189 269.486 193.141 269.64 193.14C270.74 193.12 271.87 193.107 273.03 193.1ZM268.36 214.48C268.341 214.534 268.335 214.593 268.343 214.65C268.351 214.707 268.372 214.761 268.406 214.808C268.439 214.855 268.483 214.893 268.534 214.92C268.586 214.946 268.642 214.96 268.7 214.96L277.36 214.92C277.419 214.921 277.477 214.907 277.529 214.88C277.582 214.853 277.627 214.814 277.66 214.765C277.694 214.717 277.715 214.661 277.722 214.603C277.729 214.544 277.721 214.485 277.7 214.43L273.31 202.6C273.284 202.53 273.238 202.469 273.176 202.427C273.114 202.384 273.041 202.362 272.966 202.363C272.892 202.364 272.819 202.389 272.759 202.433C272.699 202.477 272.654 202.539 272.63 202.61L268.36 214.48ZM363.89 228.78C363.89 228.939 363.827 229.092 363.714 229.204C363.602 229.317 363.449 229.38 363.29 229.38L336.67 229.34C336.569 229.34 336.473 229.3 336.401 229.229C336.33 229.157 336.29 229.061 336.29 228.96L336.3 193.56C336.3 193.438 336.348 193.321 336.435 193.235C336.521 193.148 336.638 193.1 336.76 193.1L362.68 193.11C362.818 193.11 362.95 193.165 363.048 193.262C363.145 193.36 363.2 193.492 363.2 193.63L363.17 198.92C363.17 199.058 363.116 199.19 363.021 199.288C362.925 199.385 362.795 199.44 362.66 199.44L344.11 199.42C343.98 199.42 343.855 199.472 343.764 199.564C343.672 199.655 343.62 199.78 343.62 199.91L343.61 206.86C343.61 206.987 343.661 207.109 343.751 207.199C343.841 207.289 343.963 207.34 344.09 207.34L361.07 207.35C361.159 207.35 361.248 207.368 361.33 207.402C361.413 207.436 361.488 207.486 361.551 207.549C361.614 207.612 361.664 207.687 361.698 207.77C361.732 207.852 361.75 207.941 361.75 208.03V212.87C361.75 213.058 361.675 213.239 361.542 213.372C361.409 213.505 361.228 213.58 361.04 213.58L344.03 213.53C343.911 213.53 343.796 213.577 343.712 213.662C343.627 213.746 343.58 213.861 343.58 213.98L343.59 222.8C343.593 222.928 343.645 223.05 343.737 223.14C343.829 223.23 343.952 223.28 344.08 223.28L363.29 223.29C363.447 223.29 363.599 223.352 363.711 223.462C363.823 223.573 363.887 223.723 363.89 223.88V228.78ZM388.88 228.86V193.62C388.88 193.485 388.934 193.355 389.029 193.259C389.125 193.164 389.255 193.11 389.39 193.11H393.23C393.365 193.11 393.495 193.164 393.591 193.259C393.686 193.355 393.74 193.485 393.74 193.62V224.52C393.74 224.655 393.794 224.785 393.889 224.881C393.985 224.976 394.115 225.03 394.25 225.03H411.05C411.185 225.03 411.315 225.084 411.411 225.179C411.506 225.275 411.56 225.405 411.56 225.54V228.86C411.56 228.995 411.506 229.125 411.411 229.221C411.315 229.316 411.185 229.37 411.05 229.37H389.39C389.255 229.37 389.125 229.316 389.029 229.221C388.934 229.125 388.88 228.995 388.88 228.86ZM444.68 225.54L444.67 228.87C444.67 229.005 444.615 229.135 444.518 229.231C444.42 229.326 444.288 229.38 444.15 229.38L422.66 229.37C422.488 229.37 422.322 229.302 422.2 229.18C422.078 229.058 422.01 228.892 422.01 228.72V193.67C422.01 193.524 422.068 193.384 422.171 193.281C422.274 193.178 422.414 193.12 422.56 193.12H426.36C426.501 193.12 426.635 193.176 426.735 193.275C426.834 193.375 426.89 193.509 426.89 193.65L426.87 224.49C426.87 224.639 426.928 224.781 427.031 224.886C427.134 224.991 427.274 225.05 427.42 225.05H444.19C444.32 225.05 444.445 225.102 444.536 225.194C444.628 225.285 444.68 225.41 444.68 225.54ZM170.52 223.3C170.663 223.3 170.801 223.357 170.902 223.458C171.003 223.559 171.06 223.697 171.06 223.84L171.07 228.84C171.07 228.981 171.014 229.115 170.915 229.215C170.815 229.314 170.681 229.37 170.54 229.37L145.97 229.38C145.885 229.381 145.801 229.366 145.722 229.334C145.643 229.303 145.571 229.256 145.511 229.196C145.45 229.137 145.402 229.066 145.37 228.987C145.337 228.909 145.32 228.825 145.32 228.74L145.3 193.92C145.3 193.806 145.345 193.697 145.426 193.616C145.507 193.535 145.616 193.49 145.73 193.49L152.39 193.47C152.448 193.47 152.505 193.481 152.558 193.503C152.612 193.524 152.66 193.556 152.701 193.596C152.742 193.636 152.774 193.683 152.797 193.735C152.819 193.788 152.83 193.844 152.83 193.9L152.82 222.86C152.82 222.979 152.867 223.094 152.952 223.178C153.036 223.263 153.151 223.31 153.27 223.31L170.52 223.3ZM325.75 229.37H300.92C300.803 229.37 300.691 229.324 300.609 229.241C300.526 229.159 300.48 229.047 300.48 228.93V193.95C300.48 193.833 300.526 193.721 300.609 193.639C300.691 193.556 300.803 193.51 300.92 193.51H307.54C307.657 193.51 307.769 193.556 307.851 193.639C307.934 193.721 307.98 193.833 307.98 193.95V222.87C307.98 222.987 308.026 223.099 308.109 223.181C308.191 223.264 308.303 223.31 308.42 223.31H325.75C325.867 223.31 325.979 223.356 326.061 223.439C326.144 223.521 326.19 223.633 326.19 223.75V228.93C326.19 229.047 326.144 229.159 326.061 229.241C325.979 229.324 325.867 229.37 325.75 229.37Z" fill="black"/>
</g>
<defs>
<clipPath id="clip0_1_22">
<rect width="503" height="230" fill="white"/>
</clipPath>
</defs>
</svg>
